<?xml version="1.0" encoding="utf-8"?>
<!-- Generator: Adobe Illustrator 18.1.0, SVG Export Plug-In . SVG Version: 6.00 Build 0)  -->
<svg version="1.1" id="Layer_1" xmlns="http://www.w3.org/2000/svg" xmlns:xlink="http://www.w3.org/1999/xlink" x="0px" y="0px"
	 viewBox="0 0 174.5 382.5" enable-background="new 0 0 174.5 382.5" xml:space="preserve">
<circle fill="#F9ABAB" stroke="#F9ABAB" stroke-width="6" stroke-miterlimit="10" cx="72.1" cy="206.3" r="69.1"/>
<path fill="#F9ABAB" stroke="#F9ABAB" stroke-width="6" stroke-miterlimit="10" d="M52.4,292.2H125c10.2,0,18.5-8.3,18.5-18.5v-77
	H52.4V292.2z"/>
<path fill="#F9ABAB" stroke="#F9ABAB" stroke-width="6" stroke-miterlimit="10" d="M68.4,121.7H125c10.2,0,18.5,8.3,18.5,18.5v77
	H52.4v-79.5C52.4,128.9,59.5,121.7,68.4,121.7z"/>
<path fill="#F9ABAB" d="M116.8,382.5L116.8,382.5c-5.5,0-10.2-4-11.1-9.4l-18-109.6h35.4V376C123.3,379.6,120.4,382.5,116.8,382.5z"
	/>
<circle fill="#FFFFFF" stroke="#F9ABAB" stroke-width="9" stroke-miterlimit="10" cx="83.3" cy="51.9" r="47.4"/>
<path fill="#FFFFFF" stroke="#F9ABAB" stroke-width="8" stroke-miterlimit="10" d="M128.2,35.7c0,0-3,61.6,7.8,68.4
	c1.8,6.8-30.4-14.7-30.4-14.7"/>
<path fill="#FFFFFF" d="M67,191.9c0-10.7-8.6-19.3-19.3-19.3s-19.3,8.6-19.3,19.3c0,6.8,5,10.5,8.7,16.1l31.8,40.1l27.6-38.9
	c3.5-4.9,9.1-9.5,9.1-16.4c0-10.7-8.6-19.3-19.3-19.3S67,182.2,67,192.9"/>
<path fill="#F9ABAB" stroke="#FFFFFF" stroke-width="4" stroke-miterlimit="10" d="M166.6,249.9l-7.7,2.1c-4.2,1.1-8.7-1.4-9.8-5.6
	l-30.3-112c-1.1-4.2,1.4-8.7,5.6-9.8l7.7-2.1c4.2-1.1,8.7,1.4,9.8,5.6l30.3,112C173.4,244.3,170.8,248.7,166.6,249.9z"/>
</svg>
