<?xml version="1.0" encoding="utf-8"?>
<!-- Generator: Adobe Illustrator 18.1.0, SVG Export Plug-In . SVG Version: 6.00 Build 0)  -->
<svg version="1.1" id="Layer_4" xmlns="http://www.w3.org/2000/svg" xmlns:xlink="http://www.w3.org/1999/xlink" x="0px" y="0px"
	 viewBox="0 0 366 363" enable-background="new 0 0 366 363" xml:space="preserve">
<rect y="0" fill="#F9ACAC" width="366" height="363"/>
<path fill="#FFFFFF" stroke="#FFFFFF" stroke-width="3" stroke-miterlimit="10" d="M272.5,239.5h-179c-6.6,0-12-5.4-12-12V73.6
	c0-6.6,5.4-12,12-12h179c6.6,0,12,5.4,12,12v153.9C284.5,234.1,279.1,239.5,272.5,239.5z"/>
<path fill="#F9ACAC" d="M264.2,210.2H101.8c-6.6,0-12-5.4-12-12V80.7c0-6.6,5.4-12,12-12h162.4c6.6,0,12,5.4,12,12v117.6
	C276.2,204.8,270.8,210.2,264.2,210.2z"/>
<path stroke="#000000" stroke-width="5" stroke-miterlimit="10" d="M105.9,200.3"/>
<g>
	<path fill="none" stroke="#FFFFFF" stroke-width="8" stroke-miterlimit="10" d="M244.1,186.6c5.5,0,7.2-3.3,3.7-7.6l-10.6-13.1
		c-3.4-4.3-8.9-4.1-12.1,0.4l-3.4,4.8c-3.2,4.5-9.5,5.5-13.9,2.3l-3.9-2.8c-4.4-3.2-11.5-4.1-15.6-2c-4.1,2.1-9.9,0-12.7-4.7
		l-22.8-37.8c-2.8-4.7-7.4-4.6-10.1,0.1l-29.4,51.9c-2.7,4.8-0.4,8.5,5.1,8.5H244.1z"/>
</g>
<circle fill="#FFFFFF" stroke="#FFFFFF" stroke-width="5" stroke-miterlimit="10" cx="215.6" cy="125.9" r="12.7"/>
<path display="none" fill="#F9ACAC" stroke="#FFFFFF" stroke-width="6" stroke-miterlimit="10" d="M116.1,163
	c0,0-35.4,1.7-36.5,70.4c0,0.6,23.9,0.3,36.5,0.1c12.6,0.2,36.5,0.5,36.5-0.1C151.6,164.7,116.1,163,116.1,163z"/>
<circle display="none" fill="#F9ACAC" stroke="#FFFFFF" stroke-width="6" stroke-miterlimit="10" cx="116.1" cy="150.9" r="29.6"/>
<path display="none" fill="#F9ACAC" stroke="#FFFFFF" stroke-width="6" stroke-miterlimit="10" d="M159.3,156
	c0,0-38.9,1.9-40.1,77.3c0,0.7,26.3,0.4,40.1,0.1c13.8,0.2,40.1,0.6,40.1-0.1C198.2,157.9,159.3,156,159.3,156z"/>
<circle display="none" fill="#F9ACAC" stroke="#FFFFFF" stroke-width="6" stroke-miterlimit="10" cx="159.3" cy="141" r="32.5"/>
<path display="none" fill="#F9ACAC" stroke="#FFFFFF" stroke-width="6" stroke-miterlimit="10" d="M197.6,147.2
	c0,0-43.3,2.1-44.7,86.1c0,0.8,29.3,0.4,44.7,0.2c15.4,0.2,44.7,0.6,44.7-0.2C240.9,149.3,197.6,147.2,197.6,147.2z"/>
<circle display="none" fill="#F9ACAC" stroke="#FFFFFF" stroke-width="6" stroke-miterlimit="10" cx="197.6" cy="128.5" r="36.1"/>
<path display="none" fill="#F9ACAC" stroke="#FFFFFF" stroke-width="6" stroke-miterlimit="10" d="M236.4,139
	c0,0-47.4,2.3-48.9,94.3c0,0.9,32,0.5,48.9,0.2c16.8,0.3,48.9,0.7,48.9-0.2C283.9,141.3,236.4,139,236.4,139z"/>
<circle display="none" fill="#F9ACAC" stroke="#FFFFFF" stroke-width="6" stroke-miterlimit="10" cx="236.4" cy="116.9" r="39.6"/>
<g>
	<path fill="#FFFFFF" d="M334,30.6v303H28v-303H334 M341,23.6H21v317h320V23.6L341,23.6z"/>
</g>
</svg>
