<?xml version="1.0" encoding="utf-8"?>
<!-- Generator: Adobe Illustrator 18.1.0, SVG Export Plug-In . SVG Version: 6.00 Build 0)  -->
<svg version="1.1" id="Layer_1" xmlns="http://www.w3.org/2000/svg" xmlns:xlink="http://www.w3.org/1999/xlink" x="0px" y="0px"
	 viewBox="0 0 219 267" enable-background="new 0 0 219 267" xml:space="preserve">
<path fill="#FFFFFF" stroke="#A1DAD9" stroke-width="10" stroke-miterlimit="10" d="M6.1,267c0-32.7,26.5-117.8,59.1-117.8
	s59.1,85.2,59.1,117.8"/>
<circle fill="#FFFFFF" stroke="#A1DAD9" stroke-width="10" stroke-miterlimit="10" cx="65.2" cy="100.7" r="59.1"/>
<path fill="#FFFFFF" stroke="#A1DAD9" stroke-width="10" stroke-miterlimit="10" d="M96.1,267c0-32.7,26.5-117.8,59.1-117.8
	s59.1,85.2,59.1,117.8"/>
<circle fill="#FFFFFF" stroke="#A1DAD9" stroke-width="10" stroke-miterlimit="10" cx="155.2" cy="100.7" r="59.1"/>
<path fill="#A1DAD9" d="M110.2,12.6c0-6.2-5.1-11.3-11.3-11.3S87.6,6.4,87.6,12.6c0,4,2.9,6.1,5.1,9.4l18.6,23.5l16.1-22.8
	c2-2.9,5.3-5.5,5.3-9.6c0-6.2-5.1-11.3-11.3-11.3S110.2,7,110.2,13.2"/>
</svg>
