<?xml version="1.0" encoding="utf-8"?>
<!-- Generator: Adobe Illustrator 18.1.0, SVG Export Plug-In . SVG Version: 6.00 Build 0)  -->
<svg version="1.1" id="Layer_1" xmlns="http://www.w3.org/2000/svg" xmlns:xlink="http://www.w3.org/1999/xlink" x="0px" y="0px"
	 viewBox="0 0 232.9 327.1" enable-background="new 0 0 232.9 327.1" xml:space="preserve">
<polyline fill="none" stroke="#A1DAD9" stroke-width="6" stroke-miterlimit="10" points="150.7,210.6 156.6,251.4 140.6,326.5 "/>
<path fill="#FFFFFF" stroke="#A1DAD9" stroke-width="5" stroke-miterlimit="10" d="M154.4,152.8c-19.8-5.5-39,4.5-52,11.7
	c-3.7-6.3-6.4-14.7-6.8-26.1c-1.4-32.1,8.2-48.8,16-61.5c9.2-5,16.3-20.1,19-31c4.6-18.5-17.2-29.3-33.4-29.3S67.8,29.8,67.8,46
	S81,75.4,97.2,75.4c0.2,0,0.3,0,0.5,0c-3.4,3.4-6.8,7.4-10.1,12c-15,27.1-4.6,82.6-2.3,93.7c-1.3,2.8-2,5.6-2,8.6
	c0,20.3,31.8,36.8,71.1,36.8s64.7-43.7,69.5-63.5C240.6,94.9,227.4,173.3,154.4,152.8z"/>
<path fill="#A1DAD9" stroke="#FFFFFF" stroke-miterlimit="10" d="M71,57l-32,51.6L78,60.4C78,60.4,81.8,51.7,71,57z"/>
<circle fill="#A1DAD9" stroke="#A1DAD9" stroke-miterlimit="10" cx="93" cy="39.2" r="4.8"/>
<polyline fill="none" stroke="#A1DAD9" stroke-width="6" stroke-miterlimit="10" points="166.7,210.6 172.6,251.4 156.6,326.5 "/>
<path fill="#A1DAD9" stroke="#A1DAD9" stroke-width="5" stroke-miterlimit="10" d="M71.3,147.5c15.3,23.6-8.6,27-30.7,27
	s-54.7-19.2-28.3-33.9c62.5-34.8,6.2-51.1,28.3-51.1S36.2,93.5,71.3,147.5z"/>
<path fill="#A1DAD9" stroke="#FFFFFF" stroke-miterlimit="10" d="M69.8,50.1l-40.8,59.4l47.7-48.9C76.7,60.6,81.9,49.3,69.8,50.1z"
	/>
<rect x="91.2" y="13.5" transform="matrix(0.892 0.452 -0.452 0.892 21.2069 -49.6106)" fill="#A1DAD9" stroke="#A1DAD9" stroke-width="5" stroke-miterlimit="10" width="46.4" height="12.2"/>
<path fill="none" stroke="#A1DAD9" stroke-width="3" stroke-miterlimit="10" d="M91,14.5L72.4,7.7c-1.6-0.7-1.3-3.1,0.5-3.4
	l22.5-2.8"/>
</svg>
